<?xml version="1.0" standalone="no"?>
<!DOCTYPE svg PUBLIC "-//W3C//DTD SVG 20010904//EN"
 "http://www.w3.org/TR/2001/REC-SVG-20010904/DTD/svg10.dtd">
<svg version="1.0" xmlns="http://www.w3.org/2000/svg"
 width="2400.000000pt" height="2400.000000pt" viewBox="0 0 2400.000000 2400.000000"
 preserveAspectRatio="xMidYMid meet">
<metadata>
Created by trace 1.11, written by Peter Selinger 2001-2013
</metadata>
<g transform="translate(0.000000,2400.000000) scale(0.100000,-0.100000)"
fill="#000000" stroke="none">
<path d="M11585 22994 c-1047 -52 -1880 -192 -2790 -469 -601 -183 -1084 -375
-1660 -660 -932 -461 -1726 -1000 -2501 -1696 -1954 -1757 -3228 -4195 -3548
-6789 -25 -204 -52 -481 -58 -594 l-3 -59 2825 -1163 c1554 -640 2884 -1188
2956 -1217 l131 -55 99 60 c362 219 755 356 1194 419 47 6 182 15 300 18 l215
6 1341 1947 1340 1947 12 233 c12 250 29 394 68 608 178 965 718 1865 1492
2487 1026 824 2372 1117 3647 792 999 -254 1879 -882 2450 -1749 120 -182 168
-266 262 -455 218 -436 357 -920 415 -1445 16 -151 16 -660 0 -810 -109 -976
-505 -1830 -1162 -2504 -489 -501 -1037 -849 -1675 -1061 -403 -135 -776 -200
-1200 -212 l-220 -6 -1550 -1107 c-852 -609 -1716 -1227 -1920 -1372 l-370
-265 -2 -64 c-15 -405 -58 -662 -163 -979 -257 -777 -788 -1396 -1515 -1766
-1072 -544 -2335 -414 -3290 340 -126 99 -355 329 -462 463 -265 331 -465 729
-573 1137 -16 60 -33 113 -37 117 -4 4 -321 137 -703 294 -1493 616 -2190 904
-2805 1158 -352 145 -641 261 -643 257 -1 -4 31 -108 72 -232 306 -921 721
-1780 1251 -2584 728 -1106 1650 -2073 2720 -2854 1107 -808 2370 -1406 3706
-1754 1399 -364 2889 -447 4334 -241 1889 269 3659 1019 5171 2191 621 481
1208 1047 1713 1654 1451 1741 2322 3860 2511 6107 187 2236 -297 4445 -1398
6373 -694 1217 -1611 2288 -2702 3159 -1468 1172 -3207 1948 -5040 2250 -625
103 -1069 141 -1725 145 -242 2 -471 2 -510 0z"/>
<path d="M15370 17534 c-136 -17 -272 -39 -370 -60 -1055 -233 -1901 -1098
-2115 -2162 -42 -212 -50 -297 -50 -557 0 -260 8 -345 50 -557 210 -1045 1018
-1889 2055 -2148 232 -58 417 -80 675 -80 551 0 1072 156 1526 459 182 121
281 202 434 356 154 153 235 252 356 433 306 459 461 977 461 1537 0 560 -155
1078 -461 1537 -121 181 -202 280 -356 433 -153 154 -252 235 -433 356 -338
224 -712 368 -1132 434 -101 16 -554 29 -640 19z m531 -700 c693 -96 1286
-528 1595 -1159 398 -815 222 -1797 -434 -2426 -321 -309 -709 -498 -1157
-564 -147 -22 -433 -22 -580 0 -458 68 -863 271 -1185 595 -400 402 -610 910
-610 1480 0 570 217 1092 616 1487 340 335 762 536 1249 596 88 11 404 6 506
-9z"/>
<path d="M8410 10084 c-14 -3 -76 -11 -139 -20 -151 -21 -471 -105 -471 -124
0 -3 233 -102 518 -219 1058 -439 1070 -444 1257 -584 110 -83 277 -254 358
-367 80 -113 195 -338 237 -467 148 -448 108 -937 -110 -1352 -175 -331 -432
-582 -768 -751 -398 -198 -865 -235 -1288 -99 -50 16 -405 159 -790 318 -384
159 -700 288 -702 286 -8 -7 90 -181 163 -290 143 -215 318 -400 530 -559 136
-102 210 -148 351 -220 245 -123 475 -194 774 -237 129 -19 462 -16 600 4 797
121 1453 596 1795 1302 115 237 181 450 222 715 21 139 23 459 5 600 -72 538
-302 1010 -677 1385 -377 377 -854 608 -1382 670 -114 13 -416 19 -483 9z"/>
</g>
</svg>
