<?xml version="1.0" standalone="no"?>
<!DOCTYPE svg PUBLIC "-//W3C//DTD SVG 20010904//EN"
 "http://www.w3.org/TR/2001/REC-SVG-20010904/DTD/svg10.dtd">
<svg version="1.0" xmlns="http://www.w3.org/2000/svg"
 width="700.000000pt" height="700.000000pt" viewBox="0 0 700.000000 700.000000"
 preserveAspectRatio="xMidYMid meet">
<metadata>
Created by potrace 1.14, written by Peter Selinger 2001-2017
</metadata>
<g transform="translate(0.000000,700.000000) scale(0.100000,-0.100000)"
fill="#000000" stroke="none">
<path d="M558 6794 c-196 -47 -354 -216 -388 -414 -8 -46 -10 -699 -8 -2265
l3 -2200 23 -59 c69 -184 204 -302 387 -341 59 -12 217 -15 983 -15 l912 0 0
-340 0 -339 -707 -3 -708 -3 -42 -22 c-72 -39 -123 -120 -123 -198 0 -78 51
-159 123 -198 l42 -22 2420 -3 c1690 -1 2436 1 2472 8 109 23 177 106 177 215
0 91 -40 157 -124 201 -33 18 -74 19 -742 22 l-708 3 0 339 0 340 913 0 c765
0 923 3 982 15 189 40 335 174 392 360 17 57 18 154 18 2280 l0 2220 -22 70
c-28 88 -84 177 -149 234 -58 52 -168 107 -243 121 -36 7 -1026 10 -2940 9
-2424 -1 -2895 -3 -2943 -15z m5887 -89 c166 -44 287 -176 314 -346 12 -70 12
-1163 2 -3220 l-6 -1225 -37 -75 c-46 -93 -112 -158 -206 -202 l-67 -32 -2935
0 -2935 0 -67 32 c-117 55 -197 146 -232 263 -15 50 -17 249 -23 2230 -4 1588
-3 2191 6 2234 31 167 150 297 312 340 47 13 450 15 2934 15 2557 1 2887 -1
2940 -14z m-1985 -5460 l0 -255 -950 0 -950 0 0 255 0 255 950 0 950 0 0 -255z
m1513 -538 c60 -39 79 -122 40 -175 l-20 -27 -2478 -3 c-2275 -2 -2480 -1
-2496 14 -65 59 -32 177 57 204 16 5 1107 8 2449 7 2294 -2 2422 -3 2448 -20z"/>
<path d="M569 6523 c-60 -31 -105 -86 -119 -149 -6 -23 -10 -952 -10 -2237 0
-1842 2 -2203 14 -2231 20 -48 75 -107 121 -127 38 -18 156 -19 2933 -19
l2892 0 45 21 c59 28 102 80 122 148 14 49 15 260 8 2250 -6 1877 -9 2201 -22
2231 -19 47 -69 98 -118 121 -39 18 -136 19 -2926 19 l-2885 0 -55 -27z m3801
-998 c191 -40 361 -152 475 -310 58 -82 90 -148 121 -252 35 -117 37 -287 5
-407 -88 -331 -368 -566 -706 -593 l-80 -6 -362 -259 -363 -259 0 -38 c0 -58
-36 -186 -71 -251 -129 -242 -426 -362 -685 -275 -94 32 -199 99 -254 163 -45
53 -102 156 -120 218 l-13 42 -396 163 -396 164 -22 78 c-34 121 -53 265 -60
470 -5 141 -3 187 6 187 6 0 259 -102 562 -226 l550 -227 62 31 c77 37 132 52
219 61 l67 6 255 370 256 370 0 55 c0 65 30 195 61 265 99 225 302 396 539
455 94 23 253 25 350 5z"/>
<path d="M4082 5266 c-277 -68 -458 -366 -387 -639 86 -329 440 -495 740 -348
186 91 295 266 295 471 0 148 -52 275 -154 375 -133 130 -319 183 -494 141z
m222 -131 c220 -57 346 -287 277 -503 -57 -175 -209 -280 -394 -270 -103 5
-176 37 -250 107 -161 152 -164 405 -9 560 103 103 240 141 376 106z"/>
<path d="M2783 3858 c-24 -5 -43 -13 -43 -17 0 -5 63 -34 141 -66 77 -32 158
-71 180 -87 156 -113 173 -354 34 -493 -67 -67 -125 -90 -230 -90 -87 1 -94 2
-228 59 -75 32 -140 56 -143 53 -3 -3 8 -25 24 -50 130 -188 392 -243 595
-124 59 35 140 125 171 191 157 331 -143 705 -501 624z"/>
</g>
</svg>
